{"title":"Attack on Titan - S01E18 1080p .MP4","uid":8810797,"size":789223872,"categoryP":"video","categoryS":"hd___tv_shows","magnet":"?xt=urn:btih:013e4f724879cf38884d15b326670d15bb25f28e&amp;dn=Attack+on+Titan+-+S01E18+1080p+.MP4&amp;tr=udp%3A%2F%2Ftracker.openbittorrent.com%3A80&amp;tr=udp%3A%2F%2Fopen.demonii.com%3A1337&amp;tr=udp%3A%2F%2Ftracker.coppersurfer.tk%3A6969&amp;tr=udp%3A%2F%2Fexodus.desync.com%3A6969","seeders":1,"leechers":0,"uploader":"Danimal1q2w3","files":1,"time":1376453026,"description":"source:\n &lt;a href=&quot;\nhttp://thepiratebay.se/torrent/8800358/Attack_on_Titan_S01E18_Forest_of_Giant_Trees_%281920x1080%29_%5BPhr0st&quot; rel=&quot;nofollow&quot; target=&quot;_NEW&quot;&gt;\nhttp://thepiratebay.se/torrent/8800358/Attack_on_Titan_S01E18_Forest_of_Giant_Trees_%281920x1080%29_%5BPhr0st&lt;/a&gt;\n\nVideo\nID                                       : 1\nFormat                                   : AVC\nFormat/Info                              : Advanced Video Codec\nFormat profile                           : &lt;a class=&quot;__cf_email__&quot; href=&quot;/cdn-cgi/l/email-protection&quot; data-cfemail=&quot;7a381b091f1613141f3a364b5449&quot;&gt;[email&amp;#160;protected]&lt;/a&gt;&lt;script cf-hash='f9e31' type=&quot;text/javascript&quot;&gt;\n/* &lt;![CDATA[ */!function(){try{var t=&quot;currentScript&quot;in document?document.currentScript:function(){for(var t=document.getElementsByTagName(&quot;script&quot;),e=t.length;e--;)if(t[e].getAttribute(&quot;cf-hash&quot;))return t[e]}();if(t&amp;&amp;t.previousSibling){var e,r,n,i,c=t.previousSibling,a=c.getAttribute(&quot;data-cfemail&quot;);if(a){for(e=&quot;&quot;,r=parseInt(a.substr(0,2),16),n=2;a.length-n;n+=2)i=parseInt(a.substr(n,2),16)^r,e+=String.fromCharCode(i);e=document.createTextNode(e),c.parentNode.replaceChild(e,c)}}}catch(u){}}();/* ]]&gt; */&lt;/script&gt;\nFormat settings, CABAC                   : No\nFormat settings, ReFrames                : 2 frames\nCodec ID                                 : avc1\nCodec ID/Info                            : Advanced Video Coding\nDuration                                 : 24mn 6s\nBit rate mode                            : Variable\nBit rate                                 : 4 111 Kbps\nWidth                                    : 1 920 pixels\nHeight                                   : 1 088 pixels\nOriginal height                          : 1 080 pixels\nDisplay aspect ratio                     : 16:9\nOriginal display aspect ratio            : 16:9\nFrame rate mode                          : Variable\nFrame rate                               : 23.976 fps\nMinimum frame rate                       : 23.974 fps\nMaximum frame rate                       : 23.981 fps\nColor space                              : YUV\nChroma subsampling                       : 4:2:0\nBit depth                                : 8 bits\nScan type                                : Progressive\nBits/(Pixel*Frame)                       : 0.082\nStream size                              : 709 MiB (94%)\nLanguage                                 : English\nEncoded date                             : UTC 2013-08-13 19:21:01\nTagged date                              : UTC 2013-08-13 19:21:08\n\nAudio\nID                                       : 2\nFormat                                   : AAC\nFormat/Info                              : Advanced Audio Codec\nFormat profile                           : LC\nCodec ID                                 : 40\nDuration                                 : 24mn 6s\nBit rate mode                            : Variable\nBit rate                                 : 250 Kbps\nMaximum bit rate                         : 341 Kbps\nChannel(s)                               : 2 channels\nChannel positions                        : Front: L R\nSampling rate                            : 48.0 KHz\nCompression mode                         : Lossy\nStream size                              : 43.1 MiB (6%)\nLanguage                                 : English\nEncoded date                             : UTC 2013-08-13 19:21:08\nTagged date                              : UTC 2013-08-13 19:21:09\n\n","torrent":{"xt":"urn:btih:013e4f724879cf38884d15b326670d15bb25f28e","amp;dn":"Attack+on+Titan+-+S01E18+1080p+.MP4","amp;tr":["udp%3A%2F%2Ftracker.openbittorrent.com%3A80","udp%3A%2F%2Fopen.demonii.com%3A1337","udp%3A%2F%2Ftracker.coppersurfer.tk%3A6969","udp%3A%2F%2Fexodus.desync.com%3A6969"],"infoHash":"013e4f724879cf38884d15b326670d15bb25f28e","infoHashBuffer":{"type":"Buffer","data":[1,62,79,114,72,121,207,56,136,77,21,179,38,103,13,21,187,37,242,142]},"announce":[],"urlList":[]}}